<svg width="113" height="36" viewBox="0 0 113 36" fill="none" xmlns="http://www.w3.org/2000/svg">
<mask id="mask0_1_13" style="mask-type:alpha" maskUnits="userSpaceOnUse" x="0" y="0" width="113" height="36">
<path d="M95.2659 0.713076C93.5491 9.85662 91.8947 18.8221 90.2092 27.8173H86.5572C86.5259 27.0455 86.4634 26.3033 86.4011 25.4424C86.1201 25.6501 85.9329 25.7391 85.808 25.8876C82.9363 28.3516 79.6276 28.7673 76.1939 27.4017C72.8229 26.0657 71.3558 23.3642 71.231 19.9799C71.0125 14.7848 73.7594 10.3613 78.3478 8.55048C80.564 7.65997 82.905 7.45206 85.1525 8.19428C86.5259 8.63953 87.7434 9.58947 89.0542 10.3317C89.3353 8.78801 89.6785 7.00681 90.0218 5.22542C90.2717 3.97871 90.4589 2.702 90.7397 1.45529C90.8022 1.18814 91.1144 0.802127 91.364 0.802127C92.6127 0.683456 93.8613 0.713076 95.2659 0.713076ZM87.9306 17.1301C87.837 14.755 87.3999 12.7066 85.0276 11.7567C82.6553 10.8067 80.3766 11.3114 78.4414 12.9143C76.2252 14.8144 75.476 17.2488 75.757 20.0393C76.2252 24.6111 80.4703 25.2939 83.4357 23.9878C86.5572 22.6518 87.6809 20.0097 87.9306 17.1301ZM11.3307 23.1565C11.6117 22.6518 11.7989 22.3252 11.9861 22.0283C14.3897 17.694 16.8245 13.3598 19.1968 9.02535C19.6337 8.2239 20.1332 7.92694 21.0384 8.01599C22.162 8.10523 23.2546 8.0458 24.5032 8.0458C24.2846 8.46143 24.1599 8.72858 24.0038 8.99573C19.6025 16.4175 15.1701 23.8689 10.7689 31.2907C10.7064 31.3797 10.6439 31.4688 10.6128 31.5578C9.11449 34.5563 6.77335 36.1298 3.12133 35.7141C2.12259 35.5953 1.09253 35.6843 0 35.6843L0.624303 31.9735C1.65437 31.9735 2.6531 31.9438 3.65202 31.9735C4.80702 32.0625 5.89937 31.4986 6.49253 30.5485C7.46013 29.1533 8.08443 27.8173 7.6162 25.9767C6.27399 20.4252 5.18145 14.8144 3.96418 9.23327C3.90171 8.87706 3.83924 8.49105 3.74563 8.0458C5.15031 8.0458 6.46139 8.01599 7.74114 8.07542C7.99082 8.07542 8.33411 8.5801 8.39658 8.87706C9.30171 13.3598 10.1446 17.8425 11.0185 22.3252C11.1121 22.5329 11.1746 22.7409 11.3307 23.1565ZM34.991 7.77865C41.3588 7.80827 45.4166 12.291 44.5426 18.08C43.6997 23.5127 40.672 26.7783 35.4281 27.8767C30.1528 28.9752 25.3772 26.8079 23.91 22.4441C22.0996 17.1301 24.6904 8.87706 33.6801 7.86751C34.1795 7.77865 34.7413 7.77865 34.991 7.77865ZM27.843 18.3768C27.7806 23.5127 31.8072 25.8876 36.0524 23.8393C38.7368 22.5331 40.5159 19.2081 40.1727 16.1504C39.7669 12.2019 36.0524 10.1832 32.2441 11.9052C29.1539 13.3004 28.0302 15.9128 27.843 18.3768ZM47.2897 19.2377C47.4458 10.4802 54.7809 6.65042 61.7106 8.0458C65.5187 8.81763 68.047 11.549 68.4841 15.4972C68.9835 19.9205 67.0483 24.5517 62.5845 26.7485C59.8377 28.1439 56.6227 28.5001 53.5948 27.6986C49.7556 26.7189 47.2584 23.3346 47.2897 19.2377ZM64.1142 16.7441C64.1453 12.4691 60.2123 10.0347 56.1545 11.905C52.9082 13.419 51.7221 16.1504 51.7846 19.4158C51.8157 23.1267 54.9059 25.2643 58.6828 24.2845C61.898 23.4831 64.0828 20.455 64.1142 16.7441ZM98.918 27.8173H94.548C94.7977 26.3331 95.0474 24.9081 95.3284 23.5127C96.6706 16.2394 98.0753 8.96611 99.3862 1.69282C99.5423 0.920987 99.8233 0.653646 100.635 0.683456C101.727 0.742696 102.789 0.683456 103.975 0.683456C102.289 9.79738 100.604 18.7628 98.918 27.8173ZM103.257 27.8173L106.878 8.07542H111.31C110.064 14.6527 108.837 21.2334 107.627 27.8173H103.257ZM112.808 2.40523C112.777 3.88966 111.497 5.07713 109.937 5.07713C108.438 5.07713 107.439 4.127 107.439 2.76143C107.439 1.24738 108.751 0.00067084 110.342 0.00067084C111.653 -0.0293292 112.777 0.950417 112.808 2.22713V2.40523Z" fill="white"/>
</mask>
<g mask="url(#mask0_1_13)">
<path d="M119.644 -5.69629V44.2404H-3.77393V-5.69629H119.644Z" fill="url(#paint0_linear_1_13)"/>
</g>
<defs>
<linearGradient id="paint0_linear_1_13" x1="-58.1227" y1="65.0948" x2="75.9851" y2="-52.9622" gradientUnits="userSpaceOnUse">
<stop stop-color="#1DA9E6"/>
<stop offset="0.823" stop-color="#6966FE"/>
</linearGradient>
</defs>
</svg>
