<svg width="29" height="42" viewBox="0 0 29 42" fill="none" xmlns="http://www.w3.org/2000/svg">
<path d="M28.328 15.8328C27.7781 14.1767 25.9453 13.2761 24.2039 13.7992C23.2265 14.0897 22.4628 14.7869 22.1267 15.6875C23.9901 16.7916 25.9758 17.6631 28.0225 18.3606C28.5112 17.605 28.6029 16.6754 28.328 15.8328Z" fill="url(#paint0_linear_3_9)"/>
<path d="M28.328 15.8328C27.7781 14.1767 25.9453 13.2761 24.2039 13.7992C23.2265 14.0897 22.4628 14.7869 22.1267 15.6875C23.9901 16.7916 25.9758 17.6631 28.0225 18.3606C28.5112 17.605 28.6029 16.6754 28.328 15.8328Z" fill="#6966FD"/>
<path d="M21.8825 18.157C21.9129 18.2732 21.9741 18.3894 22.0352 18.5056L21.6685 19.3483L24.1124 20.5684C24.4791 20.7429 24.8151 20.9172 25.151 21.0915L25.7315 20.2488C25.8232 20.2198 25.9149 20.2198 25.9758 20.1907C26.5563 20.0164 27.045 19.6969 27.4422 19.2902C25.4702 18.5991 23.5678 17.7236 21.7603 16.6752C21.6647 17.171 21.707 17.6836 21.8825 18.157Z" fill="url(#paint1_linear_3_9)"/>
<path d="M21.8825 18.157C21.9129 18.2732 21.9741 18.3894 22.0352 18.5056L21.6685 19.3483L24.1124 20.5684C24.4791 20.7429 24.8151 20.9172 25.151 21.0915L25.7315 20.2488C25.8232 20.2198 25.9149 20.2198 25.9758 20.1907C26.5563 20.0164 27.045 19.6969 27.4422 19.2902C25.4702 18.5991 23.5678 17.7236 21.7603 16.6752C21.6685 17.1693 21.6991 17.6631 21.8825 18.157Z" fill="#6966FD"/>
<path d="M21.1185 20.22L19.4994 24.026V24.055L12.1069 38.204C11.8929 38.8431 11.1904 39.1919 10.5184 39.0176L10.4573 38.9886C9.87684 38.8431 9.54076 38.2912 9.69342 37.7683C9.72399 37.7102 9.72399 37.6521 9.75456 37.594L23.6541 10.3126C24.6009 8.45314 23.7761 6.21606 21.8212 5.31549C21.6989 5.25738 21.5463 5.19928 21.424 5.17023L21.3323 5.14118C19.4383 4.50188 17.3611 5.31549 16.4753 7.02947L8.96032 21.6725C8.41044 22.7476 7.06633 23.1833 5.93601 22.6604C4.8974 22.1956 4.40867 21.0334 4.80589 20.0164C4.83627 19.9293 4.86683 19.8712 4.8974 19.784L11.9235 6.24511C12.8706 4.38568 12.0763 2.14859 10.1212 1.24783C8.22721 0.376308 5.93601 1.07352 4.92816 2.8458L0.162341 11.4167C-0.204114 12.085 0.0708225 12.8985 0.773544 13.2471C1.47627 13.5957 2.33146 13.3342 2.69791 12.6949L7.46354 4.12422C7.73848 3.63036 8.37987 3.45587 8.89937 3.71751C9.3881 3.94992 9.6019 4.50188 9.3881 4.96688L9.35753 5.05384L2.33146 18.593C1.04829 20.9753 2.02576 23.9388 4.56133 25.159C7.06633 26.3793 10.1823 25.4495 11.4653 23.0381L11.557 22.8638L19.0718 8.19169C19.1926 7.96235 19.3913 7.78366 19.6321 7.68779C19.8729 7.59193 20.14 7.58518 20.3854 7.66878L20.4771 7.69783C21.027 7.87213 21.3323 8.45314 21.1185 8.97625C21.1185 9.0053 21.0879 9.03435 21.0575 9.0634L7.15804 36.3156C6.63873 37.3325 6.63873 38.4945 7.12747 39.5115C7.58563 40.4992 8.50215 41.2547 9.6019 41.5452C9.99892 41.6614 10.4267 41.7486 10.8849 41.7486C12.5651 41.7776 14.0618 40.8188 14.7034 39.3372L22.0656 25.2461L24.3872 21.8468C23.2874 21.353 22.2182 20.801 21.1185 20.22Z" fill="url(#paint2_linear_3_9)"/>
<path d="M21.1185 20.22L19.4994 24.026V24.055L12.0763 38.204C11.8623 38.8431 11.1598 39.1919 10.4878 38.9886L10.4267 38.9593C9.84627 38.8141 9.51019 38.2621 9.66304 37.7392C9.69342 37.6811 9.69342 37.623 9.72399 37.5649L23.6541 10.3126C24.6009 8.45314 23.7761 6.21606 21.8212 5.31549C21.6989 5.25738 21.5463 5.19928 21.424 5.17023L21.3323 5.14118C19.4383 4.50188 17.3611 5.31549 16.4753 7.02947L8.96032 21.6725C8.41044 22.7476 7.06633 23.1833 5.93601 22.6604C4.8974 22.1956 4.40867 21.0334 4.80589 20.0164C4.83627 19.9293 4.86683 19.8712 4.8974 19.784L11.9235 6.24511C12.8706 4.38568 12.0763 2.14859 10.1212 1.24783C8.22721 0.376308 5.93601 1.07352 4.92816 2.8458L0.162341 11.4167C-0.204114 12.085 0.0708225 12.8985 0.773544 13.2471C1.47627 13.5957 2.33146 13.3342 2.69791 12.6949L7.46354 4.12422C7.73848 3.63036 8.37987 3.45587 8.89937 3.71751C9.3881 3.94992 9.6019 4.50188 9.3881 4.96688C9.3881 4.99574 9.35753 5.02479 9.35753 5.05384L2.33146 18.593C1.04829 20.9753 2.02576 23.9388 4.56133 25.159C7.06633 26.3793 10.1823 25.4495 11.4653 23.0381L11.557 22.8638L19.0718 8.19169C19.1926 7.96235 19.3913 7.78366 19.6321 7.68779C19.8729 7.59193 20.14 7.58518 20.3854 7.66878L20.4771 7.69783C21.027 7.87213 21.3323 8.45314 21.1185 8.97625C21.1185 9.0053 21.0879 9.03435 21.0575 9.0634L7.15804 36.3156C6.63873 37.3325 6.63873 38.4945 7.12747 39.5115C7.58563 40.4992 8.50215 41.2547 9.6019 41.5452C9.99892 41.6614 10.4267 41.7486 10.8849 41.7486C12.5651 41.7776 14.0618 40.8188 14.7034 39.3372L22.0656 25.2461L24.3872 21.8468C23.2874 21.353 22.1877 20.7719 21.1185 20.22Z" fill="url(#paint3_linear_3_9)"/>
<defs>
<linearGradient id="paint0_linear_3_9" x1="25.3039" y1="13.6506" x2="25.3039" y2="18.3606" gradientUnits="userSpaceOnUse">
<stop offset="0.573" stop-color="#6966FD"/>
<stop offset="1" stop-color="#1DA9E6"/>
</linearGradient>
<linearGradient id="paint1_linear_3_9" x1="24.5554" y1="16.6752" x2="24.5554" y2="21.0915" gradientUnits="userSpaceOnUse">
<stop offset="0.573" stop-color="#6966FD"/>
<stop offset="1" stop-color="#1DA9E6"/>
</linearGradient>
<linearGradient id="paint2_linear_3_9" x1="12.1937" y1="0.873397" x2="12.1937" y2="41.7492" gradientUnits="userSpaceOnUse">
<stop offset="0.573" stop-color="#6966FD"/>
<stop offset="1" stop-color="#1DA9E6"/>
</linearGradient>
<linearGradient id="paint3_linear_3_9" x1="12.1937" y1="0.873397" x2="12.1937" y2="41.7492" gradientUnits="userSpaceOnUse">
<stop offset="0.443" stop-color="#6966FD"/>
<stop offset="1" stop-color="#1DA9E6"/>
</linearGradient>
</defs>
</svg>
